<svg width="62" height="62" viewBox="0 0 62 62" xmlns="http://www.w3.org/2000/svg"><title>Shape</title><path d="M54.665 34.023c.128-.992.223-2 .223-3.023 0-1.023-.095-2.03-.223-3.023l6.739-5.13c.605-.465.78-1.302.382-1.984l-6.372-10.742c-.398-.666-1.227-.945-1.944-.666l-7.933 3.115a24.342 24.342 0 0 0-5.385-3.053l-1.195-8.215A1.627 1.627 0 0 0 37.364 0H24.62c-.797 0-1.45.574-1.577 1.302l-1.195 8.215a23.74 23.74 0 0 0-5.385 3.053L8.53 9.455c-.717-.264-1.546 0-1.944.666L.214 20.864c-.398.666-.223 1.503.382 1.984l6.723 5.13c-.127.992-.223 2-.223 3.023 0 1.023.096 2.03.223 3.023l-6.723 5.13a1.518 1.518 0 0 0-.382 1.984L6.586 51.88a1.597 1.597 0 0 0 1.944.666l7.933-3.116a24.342 24.342 0 0 0 5.385 3.054l1.195 8.215c.127.728.78 1.302 1.577 1.302h12.744c.797 0 1.45-.574 1.577-1.302l1.195-8.215a23.74 23.74 0 0 0 5.385-3.053l7.933 3.115c.717.264 1.546 0 1.944-.666l6.372-10.742c.398-.666.223-1.504-.382-1.984l-6.723-5.13zM30.992 41.85c-6.165 0-11.151-4.852-11.151-10.85 0-5.998 4.986-10.85 11.151-10.85S42.144 25.002 42.144 31c0 5.998-4.987 10.85-11.152 10.85z" fill="#3D98A4" fill-rule="evenodd"/></svg>