<?xml version="1.0" encoding="UTF-8" standalone="no"?>
<svg width="36px" height="25px" viewBox="0 0 36 25" version="1.1" xmlns="http://www.w3.org/2000/svg" xmlns:xlink="http://www.w3.org/1999/xlink" xmlns:sketch="http://www.bohemiancoding.com/sketch/ns">
    <!-- Generator: Sketch 3.5.2 (25235) - http://www.bohemiancoding.com/sketch -->
    <title>Page 1</title>
    <desc>Created with Sketch.</desc>
    <defs></defs>
    <g id="Page-1" stroke="none" stroke-width="1" fill="none" fill-rule="evenodd" sketch:type="MSPage">
        <g id="desafio" sketch:type="MSArtboardGroup" transform="translate(-95.000000, -1591.000000)" fill="#5AABC4">
            <g id="cadernos" sketch:type="MSLayerGroup" transform="translate(-1.000000, 785.000000)">
                <g id="caderno-alunos" transform="translate(81.000000, 235.000000)" sketch:type="MSShapeGroup">
                    <g id="tooltip-copy" transform="translate(0.000000, 546.000000)">
                        <g id="balao">
                            <path d="M33,25 C24.8181818,25 17.8309091,30.1833333 15,37.5 C17.8309091,44.8166667 24.8181818,50 33,50 C41.1818182,50 48.1690909,44.8166667 51,37.5 C48.1690909,30.1833333 41.19,25 33,25 L33,25 Z M33,46 C28.584,46 25,42.192 25,37.5 C25,32.808 28.584,29 33,29 C37.416,29 41,32.808 41,37.5 C41,42.192 37.416,46 33,46 L33,46 Z M33,33 C30.2416667,33 28,35.2416667 28,38 C28,40.7583333 30.2416667,43 33,43 C35.7583333,43 38,40.7583333 38,38 C38,35.2416667 35.7583333,33 33,33 L33,33 Z" id="Page-1"></path>
                        </g>
                    </g>
                </g>
            </g>
        </g>
    </g>
</svg>