<?xml version="1.0" encoding="UTF-8" standalone="no"?>
<svg width="40px" height="40px" viewBox="0 0 40 40" version="1.1" xmlns="http://www.w3.org/2000/svg" xmlns:xlink="http://www.w3.org/1999/xlink" xmlns:sketch="http://www.bohemiancoding.com/sketch/ns">
    <!-- Generator: Sketch 3.5.2 (25235) - http://www.bohemiancoding.com/sketch -->
    <title>Page 1</title>
    <desc>Created with Sketch.</desc>
    <defs></defs>
    <g id="Page-1" stroke="none" stroke-width="1" fill="none" fill-rule="evenodd" sketch:type="MSPage">
        <g id="desafio" sketch:type="MSArtboardGroup" transform="translate(-369.000000, -1221.000000)" fill="#5AABC4">
            <g id="cadernos" sketch:type="MSLayerGroup" transform="translate(-1.000000, 785.000000)">
                <g id="caderno-alunos" transform="translate(81.000000, 235.000000)" sketch:type="MSShapeGroup">
                    <g id="tooltip" transform="translate(275.000000, 183.000000)">
                        <g id="balao">
                            <path d="M32,48 L36,48 L36,36 L32,36 L32,48 L32,48 Z M34,18 C22.95,18 14,26.95 14,38 C14,49.05 22.95,58 34,58 C45.05,58 54,49.05 54,38 C54,26.95 45.05,18 34,18 L34,18 Z M34,54 C25.18,54 18,46.82 18,38 C18,29.18 25.18,22 34,22 C42.82,22 50,29.18 50,38 C50,46.82 42.82,54 34,54 L34,54 Z M32,32 L36,32 L36,28 L32,28 L32,32 L32,32 Z" id="Page-1"></path>
                        </g>
                    </g>
                </g>
            </g>
        </g>
    </g>
</svg>