<svg width="98" height="62" viewBox="0 0 98 62" xmlns="http://www.w3.org/2000/svg"><title>Page 1</title><path d="M69.045 35C63.678 35 55.348 36.508 49 39.523 42.652 36.507 34.322 35 28.955 35 19.31 35 0 39.883 0 49.625V62h98V49.625C98 39.883 78.69 35 69.045 35zM50 55H6v-5.417C6 47.265 17.264 42 28 42s22 5.265 22 7.583V55zm41 0H57.334v-5.417c0-1.971-.898-3.726-2.334-5.286C58.973 42.997 63.82 42 68.556 42 79.51 42 91 47.265 91 49.583V55zM28.5 31C37.07 31 44 24.047 44 15.5S37.07 0 28.5 0C19.953 0 13 6.953 13 15.5S19.953 31 28.5 31zM29 6c4.972 0 9 4.027 9 9s-4.028 9-9 9c-4.973 0-9-4.027-9-9s4.027-9 9-9zm40.5 25C78.07 31 85 24.047 85 15.5S78.07 0 69.5 0C60.953 0 54 6.953 54 15.5S60.953 31 69.5 31zM69 6c4.972 0 9 4.027 9 9s-4.028 9-9 9-9-4.027-9-9 4.028-9 9-9z" fill="#3D98A4" fill-rule="evenodd"/></svg>