<svg width="62" height="62" viewBox="0 0 62 62" xmlns="http://www.w3.org/2000/svg"><title>Page 1</title><path d="M31 7.362a8.136 8.136 0 0 1 8.138 8.138A8.136 8.136 0 0 1 31 23.637a8.136 8.136 0 0 1-8.138-8.137A8.136 8.136 0 0 1 31 7.363zm0 34.876c11.528 0 23.638 5.638 23.638 8.137v4.263H7.361v-4.263c0-2.5 12.11-8.138 23.638-8.138zM31 0c-8.564 0-15.5 6.936-15.5 15.5C15.5 24.044 22.436 31 31 31s15.5-6.956 15.5-15.5C46.5 6.936 39.564 0 31 0zm0 34.875c-10.327 0-31 5.173-31 15.5V62h62V50.375c0-10.327-20.673-15.5-31-15.5z" fill="#3D98A4" fill-rule="evenodd"/></svg>