<svg width="76" height="89" viewBox="0 0 76 89" xmlns="http://www.w3.org/2000/svg"><title>article</title><g fill="none" fill-rule="evenodd"><path d="M48.898 0H4.419C2.145 0 0 2.143 0 4.306v80.388c0 .099.005.198.013.297C.197 87.049 2.25 89 4.42 89h67.162C73.855 89 76 86.857 76 84.694v-58.05H48.898V0z" fill="#4B9BA9"/><path d="M12.804 64.896c0-1.024.818-1.854 1.853-1.854h48.339c1.023 0 1.852.823 1.852 1.854a1.846 1.846 0 0 1-1.852 1.854h-48.34a1.849 1.849 0 0 1-1.852-1.854zm0 7.416c0-1.024.818-1.854 1.853-1.854h48.339c1.023 0 1.852.823 1.852 1.855a1.846 1.846 0 0 1-1.852 1.854h-48.34a1.849 1.849 0 0 1-1.852-1.855zm0-14.833c0-1.024.818-1.854 1.853-1.854h48.339c1.023 0 1.852.823 1.852 1.854a1.846 1.846 0 0 1-1.852 1.854h-48.34a1.849 1.849 0 0 1-1.852-1.854z" fill="#65BCCB"/><path d="M48.964 0L76 26.7H48.964V0z" fill="#65BBCB"/><path d="M19.296 40.85c-.09.263-.169.497-.236.704-.068.208-.136.399-.203.573a31.63 31.63 0 0 1-.203.508c-.068.163-.141.338-.22.523l2.706-.13V44.5h-6.477v-1.113c.519 0 .941-.1 1.268-.302.327-.202.603-.489.829-.86.225-.37.431-.812.617-1.325.186-.513.397-1.08.634-1.702l7.136-18.802h.829l7.728 19.08c.101.23.205.505.313.827.107.321.208.651.304.99.096.338.17.67.22.998.05.327.07.616.059.867l2.367-.13V44.5h-7.93v-1.113c.642-.01 1.116-.125 1.42-.343.304-.219.496-.486.575-.802a2.201 2.201 0 0 0 0-1.015 6.718 6.718 0 0 0-.304-1.014L29.51 37.07l-9.013.196a86.083 86.083 0 0 0-.66 1.89 63.874 63.874 0 0 0-.54 1.694zm4.194-11.765c-.53 1.44-.995 2.708-1.395 3.805l-1.074 2.937h8.016l-2.47-6.415-1.555-4.123h-.068l-1.454 3.796z" fill="#FFF"/></g></svg>