<svg width="94" height="98" viewBox="0 0 94 98" xmlns="http://www.w3.org/2000/svg"><title>docx</title><defs><filter x="-50%" y="-50%" width="200%" height="200%" filterUnits="objectBoundingBox" id="a"><feOffset dx="1" dy="1" in="SourceAlpha" result="shadowOffsetOuter1"/><feGaussianBlur in="shadowOffsetOuter1" result="shadowBlurOuter1"/><feColorMatrix values="0 0 0 0 0 0 0 0 0 0 0 0 0 0 0 0 0 0 0.084 0" in="shadowBlurOuter1" result="shadowMatrixOuter1"/><feMerge><feMergeNode in="shadowMatrixOuter1"/><feMergeNode in="SourceGraphic"/></feMerge></filter><filter x="-50%" y="-50%" width="200%" height="200%" filterUnits="objectBoundingBox" id="b"><feOffset dx="-1" dy="1" in="SourceAlpha" result="shadowOffsetOuter1"/><feGaussianBlur in="shadowOffsetOuter1" result="shadowBlurOuter1"/><feColorMatrix values="0 0 0 0 0 0 0 0 0 0 0 0 0 0 0 0 0 0 0.084 0" in="shadowBlurOuter1" result="shadowMatrixOuter1"/><feMerge><feMergeNode in="shadowMatrixOuter1"/><feMergeNode in="SourceGraphic"/></feMerge></filter></defs><g fill="none" fill-rule="evenodd"><path d="M63.308 0H14.846C12.352 0 10 2.36 10 4.742v88.516C10 95.641 12.352 98 14.846 98h74.308C91.648 98 94 95.64 94 93.258V30.032H63.308V0z" fill="#355D9F"/><path d="M0 18h45v45H0V18z" fill="#4977C2" filter="url(#a)"/><path d="M82.69 71.72v-1.44c0-.72-2.207-1.28-3.715-1.28H24.703C23.177 69 22 69.56 22 70.28v1.44c0 .72 1.177 1.28 2.703 1.28h57.454c1.508 0 .533-.56.533-1.28zm0 10v-1.44c0-.72-2.207-1.28-3.715-1.28H24.703C23.177 79 22 79.56 22 80.28v1.44c0 .72 1.177 1.28 2.703 1.28h57.454c1.508 0 .533-.56.533-1.28zM81.832 63v-2.737c0-.71-1.514-1.263-2.334-1.263H50.459c-.82 0-1.459.553-1.459 1.263v1.421c0 .71.638 1.263 1.46 1.263h31.08c.821 0 .292-.552.292-1.263m0-9.964v-1.44c0-.72-1.514-1.28-2.334-1.28H50.459c-.82 0-1.459.56-1.459 1.28v1.44c0 .72.638 1.28 1.46 1.28h31.08c.821 0 .292-.56.292-1.28M10 63H0l10 10V63" fill="#254272"/><path d="M63 0l31 31H63V0z" fill="#4977C2" filter="url(#b)"/><path d="M27.067 51L37 33h-4.805l-6.573 13.007L25.032 33h-3.271l-6.868 13.007L14.598 33H10l1.297 18h4.45l6.397-12.36.472 12.36h4.45z" fill="#FFF"/></g></svg>