<svg width="85" height="88" viewBox="0 0 85 88" xmlns="http://www.w3.org/2000/svg"><title>exerciselist</title><g fill="none" fill-rule="evenodd"><path d="M4.412.607c-2.208 0-4.291 2.09-4.291 4.2v78.387c0 2.11 2.083 4.199 4.291 4.199h65.809c2.208 0 4.291-2.09 4.291-4.2v-55.99H47.331V.607H4.412z" fill="#D3A77A"/><path d="M24.624 87.393H70.22c2.208 0 4.291-2.09 4.291-4.2V35.965S22.415 87.393 24.624 87.393z" fill="#C69869"/><path d="M74.512 27.203H47.331V.607l27.181 26.596z" fill="#EAC49E"/><path d="M8.625 59.332a2.416 2.416 0 0 1 2.41-2.41h49.63c1.331 0 2.41 1.07 2.41 2.41a2.416 2.416 0 0 1-2.41 2.41h-49.63a2.404 2.404 0 0 1-2.41-2.41zm0 9.643c0-1.331 1.06-2.41 2.408-2.41h24.01c1.33 0 2.408 1.07 2.408 2.41 0 1.331-1.06 2.41-2.408 2.41h-24.01a2.404 2.404 0 0 1-2.408-2.41zm0-19.286a2.416 2.416 0 0 1 2.41-2.41h49.63c1.331 0 2.41 1.07 2.41 2.41a2.416 2.416 0 0 1-2.41 2.411h-49.63a2.404 2.404 0 0 1-2.41-2.41zm0-9.643a2.416 2.416 0 0 1 2.41-2.41h49.63c1.331 0 2.41 1.07 2.41 2.41a2.416 2.416 0 0 1-2.41 2.411h-49.63a2.404 2.404 0 0 1-2.41-2.41z" fill="#B47D4C"/><path d="M27.034 77.106l5.893 6.283 11.508-5.199.744-6.806-7.72-6.155-5.765.42-4.66 11.457z" fill="#E47A25"/><path d="M44.435 78.19c6.55-6.33 34.256-31.53 34.256-31.675C76.5 34.637 65.016 33.288 65.016 33.288L31.656 65.64h5.028s1.65 7.023 7.303 7.023c.082.097.448 5.527.448 5.527z" fill="#6D8E3B"/><path d="M69.9 34.75c-2.193-.9-4.884-1.462-4.884-1.462L31.656 65.64h5.028l.577 1.656L69.899 34.75z" fill="#82A83F"/><path d="M68.33 30.106l-2.164 1.88c1.457.226 11.867 2.138 13.246 13.949 0 0 2.578-2.57 2.578-2.618 1.73-2.588 2.915-5.288 1.554-7.216-2.29-3.198-4.484-5.497-6.773-6.991-3.91-2.572-8.441.996-8.441.996z" fill="#EA5D48"/><path d="M27.034 77.106l5.893 6.283 9.101-4.109-.18-2.912-8.104-7.571-3.203-.274-3.507 8.583z" fill="#EE9B50"/><path d="M22.716 87.457l10.237-4.061-5.92-6.389-4.317 10.45z" fill="#333"/><path d="M68.876 34.397l-31.998 31.84c.368 1.253 2.202 6.17 6.814 6.418l32.533-32.377c-2.112-3.165-5.029-4.916-7.35-5.88z" fill="#799B3E"/><path d="M45.7 76.906s-.441-5.631-.521-5.726c-5.67 0-6.5-6.808-6.5-6.808h-5.71l-1.313 1.27h5.028s1.65 7.023 7.303 7.023c.082.098.448 5.527.448 5.527.065-.016 1.282-1.27 1.266-1.286z" opacity=".1" fill="#FFF"/><path d="M65.016 33.288S76.417 34.8 78.691 46.515c1.555-1.43 1.442-1.14 1.442-1.14-2.194-11.878-13.967-13.388-13.967-13.388l-1.15 1.301z" fill="#B6B6B5"/></g></svg>