<svg width="86" height="87" viewBox="0 0 86 87" xmlns="http://www.w3.org/2000/svg"><title>presentation</title><g fill="none" fill-rule="evenodd"><path d="M57.94 0H15.02c-2.208 0-4.291 2.09-4.291 4.2v78.386c0 2.11 2.083 4.2 4.291 4.2h65.81c2.208 0 4.291-2.09 4.291-4.2v-55.99H57.94V0z" fill="#EF3D25"/><path d="M40.772 16.071v39.194H.715V16.071h40.057zm44.35 10.525H57.94V0l27.18 26.596z" fill="#F1614B"/><path d="M74.83 61.646v-1.512c0-.756-1.966-1.344-3.31-1.344H23.153c-1.36 0-2.41.588-2.41 1.344v1.512c0 .756 1.05 1.344 2.41 1.344h51.203c1.344 0 .475-.588.475-1.344zm0 8.398v-1.511c0-.756-1.966-1.344-3.31-1.344H23.153c-1.36 0-2.41.588-2.41 1.344v1.511c0 .756 1.05 1.344 2.41 1.344h51.203c1.344 0 .475-.588.475-1.344zm.124-15.397v-2.912c0-.755-1.378-1.343-2.125-1.343H46.393a1.32 1.32 0 0 0-1.329 1.343v1.512a1.32 1.32 0 0 0 1.329 1.344h28.296c.747 0 .265-.588.265-1.344v1.4zm0-9.798v-1.512c0-.756-1.378-1.344-2.125-1.344H46.393a1.32 1.32 0 0 0-1.329 1.344v1.512a1.32 1.32 0 0 0 1.329 1.343h28.296c.747 0 .265-.588.265-1.343zM10.73 54.59H.715l10.015 9.798V54.59z" fill="#B2200D"/><path d="M35.088 40.613c-.054-.428-.286-.672-.58-.866-.558-.367-1.182-.508-1.834-.55-1.362-.09-2.718.02-4.073.142-.359.032-.717.068-1.105.105.035.04.05.068.072.082 1.3.804 2.648 1.501 4.143 1.849.705.164 1.414.228 2.126.046.475-.121.877-.372 1.234-.732-.033.091-.057.188-.099.274-.45.929-1.198 1.434-2.189 1.589-1.237.193-2.408-.091-3.553-.532-1.401-.54-2.685-1.304-3.926-2.148a.6.6 0 0 0-.467-.104c-3.052.458-5.999 1.335-8.919 2.32a.534.534 0 0 0-.329.295c-.738 1.457-1.55 2.868-2.525 4.176-.693.93-1.445 1.804-2.388 2.485-.515.372-1.065.68-1.702.756-.955.114-1.744-.218-2.306-1.023-.383-.55-.312-1.133-.009-1.696.349-.648.872-1.137 1.43-1.59 1.137-.92 2.4-1.636 3.685-2.31.206-.109.415-.212.623-.316.01-.006.024-.003.085-.008-.224.287-.403.57-.683.758-.928.625-1.816 1.3-2.594 2.116-.672.703-1.262 1.466-1.554 2.42-.088.288-.119.595-.176.894l.076.054c.254-.135.521-.25.761-.407.69-.453 1.257-1.048 1.797-1.67 1.265-1.459 2.341-3.06 3.346-4.71 1.958-3.219 3.683-6.559 5.028-10.097.202-.53.226-1.003.057-1.55a33.214 33.214 0 0 1-1.148-4.965c-.137-.93-.23-1.863-.11-2.81.152-1.206 1.012-1.742 1.839-1.95.617-.156 1.082.09 1.461.565.389.486.536 1.071.63 1.673.196 1.254.006 2.48-.292 3.69-.28 1.135-.59 2.26-.892 3.388a.623.623 0 0 0 .018.417c1.212 3.05 3.073 5.58 5.727 7.484.333.238.65.29 1.043.23 1.415-.215 2.832-.423 4.266-.46.904-.023 1.807-.01 2.682.265.178.056.354.126.52.21.794.398 1.09 1.043.887 1.92-.018.082-.046.162-.083.29zm-10.942-2.189a19.515 19.515 0 0 1-2.957-2.985c-.852-1.075-1.573-2.22-2.245-3.42-1.015 3.041-2.195 5.997-3.668 8.901 2.89-1.052 5.77-2.007 8.87-2.496zm-3.702-17.531c-.08.094-.167.182-.233.279-.373.541-.462 1.135-.49 1.733-.06 1.214.159 2.408.474 3.592.096.36.213.715.32 1.072.39-.9.733-1.798 1.053-2.7.234-.656.395-1.324.354-2.01-.051-.846-.484-1.524-1.478-1.966z" fill="#FFF"/></g></svg>