<svg width="104" height="75" viewBox="0 0 104 75" xmlns="http://www.w3.org/2000/svg"><title>video</title><g fill="none" fill-rule="evenodd"><path d="M103.097 17.094c0-1.508-.911-2.816-2.22-3.413a4.247 4.247 0 0 0-1.453-.284c-.967 0-.78-.142-1.737.176L80.32 19.716V17.24C80.32 8.057 72.946.607 63.835.607H17.086C7.976.607.601 8.057.601 17.241v40.66c0 9.184 7.375 16.635 16.485 16.635h46.75c9.11 0 16.484-7.45 16.484-16.634v-2.418l17.368 6.229c.772.245.769.147 1.736.147.484 0 .997-.114 1.452-.285 1.31-.569 2.22-.972 2.22-2.48V17.094z" fill="#676767"/><path d="M23.379 17.668h34.164a8.524 8.524 0 0 1 8.542 8.53v22.747c0 4.72-3.816 8.53-8.542 8.53H23.38a8.524 8.524 0 0 1-8.542-8.53V26.198c0-4.72 3.815-8.53 8.542-8.53z" fill="#CAE3E7"/></g></svg>